<svg width="24" height="24" viewBox="0 0 24 24" fill="none" xmlns="http://www.w3.org/2000/svg">
<path d="M11.9995 15.26C11.8095 15.26 11.6195 15.1899 11.4695 15.0399L8.46945 12.0399C8.17945 11.7499 8.17945 11.27 8.46945 10.98C8.75945 10.69 9.23945 10.69 9.52945 10.98L11.9995 13.45L14.4695 10.98C14.7595 10.69 15.2395 10.69 15.5295 10.98C15.8195 11.27 15.8195 11.7499 15.5295 12.0399L12.5295 15.0399C12.3795 15.1899 12.1895 15.26 11.9995 15.26Z" fill="white"/>
<path d="M12 15.26C11.59 15.26 11.25 14.92 11.25 14.51V6.51001C11.25 6.10001 11.59 5.76001 12 5.76001C12.41 5.76001 12.75 6.10001 12.75 6.51001V14.51C12.75 14.93 12.41 15.26 12 15.26Z" fill="white"/>
<path d="M12.0004 18.2302C9.89043 18.2302 7.77043 17.8902 5.76043 17.2202C5.37043 17.0902 5.16043 16.6602 5.29043 16.2702C5.42043 15.8802 5.84043 15.6602 6.24043 15.8002C9.96043 17.0402 14.0504 17.0402 17.7704 15.8002C18.1604 15.6702 18.5904 15.8802 18.7204 16.2702C18.8504 16.6602 18.6404 17.0902 18.2504 17.2202C16.2304 17.9002 14.1104 18.2302 12.0004 18.2302Z" fill="white"/>
<path d="M5.45208 20C5.33717 20 5.22226 19.9577 5.13154 19.867C4.95615 19.6916 4.95615 19.4013 5.13154 19.226L17.2274 7.13153C17.4028 6.95616 17.6931 6.95616 17.8685 7.13153C18.0438 7.3069 18.0438 7.59716 17.8685 7.77253L5.77262 19.867C5.6819 19.9577 5.56699 20 5.45208 20Z" fill="white"/>
</svg>
