<svg width="52" height="18" viewBox="0 0 52 18" fill="none" xmlns="http://www.w3.org/2000/svg">
<path d="M18.444 8.812C18.444 7.996 18.632 7.264 19.008 6.616C19.392 5.968 19.908 5.464 20.556 5.104C21.212 4.736 21.928 4.552 22.704 4.552C23.592 4.552 24.38 4.772 25.068 5.212C25.764 5.644 26.268 6.26 26.58 7.06H24.936C24.72 6.62 24.42 6.292 24.036 6.076C23.652 5.86 23.208 5.752 22.704 5.752C22.152 5.752 21.66 5.876 21.228 6.124C20.796 6.372 20.456 6.728 20.208 7.192C19.968 7.656 19.848 8.196 19.848 8.812C19.848 9.428 19.968 9.968 20.208 10.432C20.456 10.896 20.796 11.256 21.228 11.512C21.66 11.76 22.152 11.884 22.704 11.884C23.208 11.884 23.652 11.776 24.036 11.56C24.42 11.344 24.72 11.016 24.936 10.576H26.58C26.268 11.376 25.764 11.992 25.068 12.424C24.38 12.856 23.592 13.072 22.704 13.072C21.92 13.072 21.204 12.892 20.556 12.532C19.908 12.164 19.392 11.656 19.008 11.008C18.632 10.36 18.444 9.628 18.444 8.812ZM29.5493 4.12V13H28.1813V4.12H29.5493ZM34.2133 13.108C33.5893 13.108 33.0253 12.968 32.5213 12.688C32.0173 12.4 31.6213 12 31.3333 11.488C31.0453 10.968 30.9013 10.368 30.9013 9.688C30.9013 9.016 31.0493 8.42 31.3453 7.9C31.6413 7.38 32.0453 6.98 32.5573 6.7C33.0693 6.42 33.6413 6.28 34.2733 6.28C34.9053 6.28 35.4773 6.42 35.9893 6.7C36.5013 6.98 36.9053 7.38 37.2013 7.9C37.4973 8.42 37.6453 9.016 37.6453 9.688C37.6453 10.36 37.4933 10.956 37.1893 11.476C36.8853 11.996 36.4693 12.4 35.9413 12.688C35.4213 12.968 34.8453 13.108 34.2133 13.108ZM34.2133 11.92C34.5653 11.92 34.8933 11.836 35.1973 11.668C35.5093 11.5 35.7613 11.248 35.9533 10.912C36.1453 10.576 36.2413 10.168 36.2413 9.688C36.2413 9.208 36.1493 8.804 35.9653 8.476C35.7813 8.14 35.5373 7.888 35.2333 7.72C34.9293 7.552 34.6013 7.468 34.2493 7.468C33.8973 7.468 33.5693 7.552 33.2653 7.72C32.9693 7.888 32.7333 8.14 32.5573 8.476C32.3813 8.804 32.2933 9.208 32.2933 9.688C32.2933 10.4 32.4733 10.952 32.8333 11.344C33.2013 11.728 33.6613 11.92 34.2133 11.92ZM41.3977 13.108C40.8777 13.108 40.4097 13.016 39.9937 12.832C39.5857 12.64 39.2617 12.384 39.0217 12.064C38.7817 11.736 38.6537 11.372 38.6377 10.972H40.0537C40.0777 11.252 40.2097 11.488 40.4497 11.68C40.6977 11.864 41.0057 11.956 41.3737 11.956C41.7577 11.956 42.0537 11.884 42.2617 11.74C42.4777 11.588 42.5857 11.396 42.5857 11.164C42.5857 10.916 42.4657 10.732 42.2257 10.612C41.9937 10.492 41.6217 10.36 41.1097 10.216C40.6137 10.08 40.2097 9.948 39.8977 9.82C39.5857 9.692 39.3137 9.496 39.0817 9.232C38.8577 8.968 38.7457 8.62 38.7457 8.188C38.7457 7.836 38.8497 7.516 39.0577 7.228C39.2657 6.932 39.5617 6.7 39.9457 6.532C40.3377 6.364 40.7857 6.28 41.2897 6.28C42.0417 6.28 42.6457 6.472 43.1017 6.856C43.5657 7.232 43.8137 7.748 43.8457 8.404H42.4777C42.4537 8.108 42.3337 7.872 42.1177 7.696C41.9017 7.52 41.6097 7.432 41.2417 7.432C40.8817 7.432 40.6057 7.5 40.4137 7.636C40.2217 7.772 40.1257 7.952 40.1257 8.176C40.1257 8.352 40.1897 8.5 40.3177 8.62C40.4457 8.74 40.6017 8.836 40.7857 8.908C40.9697 8.972 41.2417 9.056 41.6017 9.16C42.0817 9.288 42.4737 9.42 42.7777 9.556C43.0897 9.684 43.3577 9.876 43.5817 10.132C43.8057 10.388 43.9217 10.728 43.9297 11.152C43.9297 11.528 43.8257 11.864 43.6177 12.16C43.4097 12.456 43.1137 12.688 42.7297 12.856C42.3537 13.024 41.9097 13.108 41.3977 13.108ZM51.4678 9.532C51.4678 9.78 51.4518 10.004 51.4198 10.204H46.3678C46.4078 10.732 46.6038 11.156 46.9558 11.476C47.3078 11.796 47.7398 11.956 48.2518 11.956C48.9878 11.956 49.5078 11.648 49.8118 11.032H51.2878C51.0878 11.64 50.7238 12.14 50.1958 12.532C49.6758 12.916 49.0278 13.108 48.2518 13.108C47.6198 13.108 47.0518 12.968 46.5478 12.688C46.0518 12.4 45.6598 12 45.3718 11.488C45.0918 10.968 44.9518 10.368 44.9518 9.688C44.9518 9.008 45.0878 8.412 45.3598 7.9C45.6398 7.38 46.0278 6.98 46.5238 6.7C47.0278 6.42 47.6038 6.28 48.2518 6.28C48.8758 6.28 49.4318 6.416 49.9198 6.688C50.4078 6.96 50.7878 7.344 51.0598 7.84C51.3318 8.328 51.4678 8.892 51.4678 9.532ZM50.0398 9.1C50.0318 8.596 49.8518 8.192 49.4998 7.888C49.1478 7.584 48.7118 7.432 48.1918 7.432C47.7198 7.432 47.3158 7.584 46.9798 7.888C46.6438 8.184 46.4438 8.588 46.3798 9.1H50.0398Z" fill="white"/>
<path d="M6 15C2.69023 15 0 12.3098 0 9C0 5.69023 2.69023 3 6 3C9.30977 3 12 5.69023 12 9C12 12.3098 9.30977 15 6 15ZM6 3.83721C3.15349 3.83721 0.837209 6.15349 0.837209 9C0.837209 11.8465 3.15349 14.1628 6 14.1628C8.84651 14.1628 11.1628 11.8465 11.1628 9C11.1628 6.15349 8.84651 3.83721 6 3.83721Z" fill="white"/>
<path d="M8.40576 10.6986C8.60123 10.8942 8.60123 11.2101 8.40576 11.4057C8.35938 11.4522 8.30426 11.489 8.24358 11.5142C8.18291 11.5393 8.11786 11.5522 8.05218 11.5522C7.92421 11.5522 7.79622 11.5032 7.6987 11.4057L6.19624 9.90311L4.69378 11.4057C4.6474 11.4522 4.5923 11.4891 4.53163 11.5142C4.47097 11.5393 4.40593 11.5522 4.34027 11.5522C4.27459 11.5522 4.20955 11.5393 4.14888 11.5142C4.0882 11.4891 4.03309 11.4522 3.98671 11.4057C3.79124 11.2101 3.79124 10.8942 3.98671 10.6986L5.48927 9.19614L3.98669 7.69368C3.79122 7.49812 3.79122 7.18216 3.98669 6.98662C4.18225 6.79115 4.49821 6.79115 4.69378 6.98662L6.19624 8.48918L7.6987 6.9866C7.89426 6.79113 8.21022 6.79113 8.40576 6.9866C8.60123 7.18216 8.60123 7.49812 8.40576 7.69368L6.9032 9.19614L8.40576 10.6986Z" fill="white"/>
</svg>
