<svg width="24" height="19" viewBox="0 0 24 19" fill="none" xmlns="http://www.w3.org/2000/svg">
<path d="M3.63248 13.9214H20.4041L21.6393 8.74901C21.6485 8.74901 21.6668 8.74901 21.6851 8.74901C22.9569 8.74901 24 7.67885 24 6.36462C24 5.05978 22.9661 3.98962 21.6851 3.98962C20.4041 3.98962 19.3702 5.06917 19.3702 6.36462C19.3702 6.72134 19.4434 7.06868 19.5806 7.36907L16.9272 9.33103C16.6527 9.52816 16.4605 9.46245 16.3141 9.23715L13.1575 4.4496C13.8528 4.03656 14.3286 3.25741 14.3286 2.375C14.3286 1.07016 13.2856 0 12.0137 0C10.7236 0 9.68967 1.07016 9.68967 2.375C9.68967 3.25741 10.1655 4.03656 10.8608 4.4496L7.70415 9.23715C7.55776 9.45306 7.39306 9.51877 7.12772 9.32164L4.43767 7.33152C4.56576 7.04051 4.63896 6.71196 4.63896 6.36462C4.63896 5.06917 3.59588 3.98962 2.32406 3.98962C1.04308 3.98962 0 5.05978 0 6.36462C0 7.67885 1.04308 8.74901 2.32406 8.74901C2.34236 8.74901 2.36981 8.74901 2.38811 8.74901L3.63248 13.9214ZM3.98018 15.414L4.28212 16.6625C4.65726 18.2115 5.48075 19 7.05452 19H16.9729C18.5467 19 19.3702 18.2302 19.7362 16.6625L20.0381 15.414H3.98018Z" fill="#FED600"/>
</svg>
