<svg width="24" height="24" viewBox="0 0 24 24" fill="none" xmlns="http://www.w3.org/2000/svg">
<path d="M11.9995 15.26C11.8095 15.26 11.6195 15.1899 11.4695 15.0399L8.46945 12.0399C8.17945 11.7499 8.17945 11.27 8.46945 10.98C8.75945 10.69 9.23945 10.69 9.52945 10.98L11.9995 13.45L14.4695 10.98C14.7595 10.69 15.2395 10.69 15.5295 10.98C15.8195 11.27 15.8195 11.7499 15.5295 12.0399L12.5295 15.0399C12.3795 15.1899 12.1895 15.26 11.9995 15.26Z" fill="white"/>
<path d="M12 15.26C11.59 15.26 11.25 14.92 11.25 14.51V6.51001C11.25 6.10001 11.59 5.76001 12 5.76001C12.41 5.76001 12.75 6.10001 12.75 6.51001V14.51C12.75 14.93 12.41 15.26 12 15.26Z" fill="white"/>
<path d="M12.0004 18.23C9.89043 18.23 7.77043 17.89 5.76043 17.22C5.37043 17.09 5.16043 16.66 5.29043 16.27C5.42043 15.88 5.84043 15.66 6.24043 15.8C9.96043 17.04 14.0504 17.04 17.7704 15.8C18.1604 15.67 18.5904 15.88 18.7204 16.27C18.8504 16.66 18.6404 17.09 18.2504 17.22C16.2304 17.9 14.1104 18.23 12.0004 18.23Z" fill="white"/>
</svg>
