<svg width="15" height="16" viewBox="0 0 15 16" fill="none" xmlns="http://www.w3.org/2000/svg">
<path d="M9.375 14.7188H5.625C2.23125 14.7188 0.78125 13.2688 0.78125 9.875V6.125C0.78125 2.73125 2.23125 1.28125 5.625 1.28125H9.375C12.7688 1.28125 14.2188 2.73125 14.2188 6.125V9.875C14.2188 13.2688 12.7688 14.7188 9.375 14.7188ZM5.625 2.21875C2.74375 2.21875 1.71875 3.24375 1.71875 6.125V9.875C1.71875 12.7563 2.74375 13.7812 5.625 13.7812H9.375C12.2563 13.7812 13.2812 12.7563 13.2812 9.875V6.125C13.2812 3.24375 12.2563 2.21875 9.375 2.21875H5.625Z" fill="#38AC72"/>
<path d="M7.50039 10.0375C7.38164 10.0375 7.26289 9.99375 7.16914 9.9L5.29414 8.025C5.11289 7.84375 5.11289 7.54375 5.29414 7.3625C5.47539 7.18125 5.77539 7.18125 5.95664 7.3625L7.50039 8.90625L9.04414 7.3625C9.22539 7.18125 9.52539 7.18125 9.70664 7.3625C9.88789 7.54375 9.88789 7.84375 9.70664 8.025L7.83164 9.9C7.73789 9.99375 7.61914 10.0375 7.50039 10.0375Z" fill="#38AC72"/>
<path d="M7.5 10.0375C7.24375 10.0375 7.03125 9.82498 7.03125 9.56873V4.56873C7.03125 4.31248 7.24375 4.09998 7.5 4.09998C7.75625 4.09998 7.96875 4.31248 7.96875 4.56873V9.56873C7.96875 9.83123 7.75625 10.0375 7.5 10.0375Z" fill="#38AC72"/>
<path d="M7.50003 11.8937C6.18128 11.8937 4.85628 11.6812 3.60003 11.2625C3.35628 11.1812 3.22503 10.9125 3.30628 10.6687C3.38753 10.425 3.65002 10.2875 3.90002 10.375C6.22502 11.15 8.78127 11.15 11.1063 10.375C11.35 10.2937 11.6188 10.425 11.7 10.6687C11.7813 10.9125 11.65 11.1812 11.4063 11.2625C10.1438 11.6875 8.81878 11.8937 7.50003 11.8937Z" fill="#38AC72"/>
</svg>
