<svg width="15" height="16" viewBox="0 0 15 16" fill="none" xmlns="http://www.w3.org/2000/svg">
<path d="M7.5 14.7188C3.79375 14.7188 0.78125 11.7063 0.78125 8C0.78125 4.29375 3.79375 1.28125 7.5 1.28125C11.2063 1.28125 14.2188 4.29375 14.2188 8C14.2188 11.7063 11.2063 14.7188 7.5 14.7188ZM7.5 2.21875C4.3125 2.21875 1.71875 4.8125 1.71875 8C1.71875 11.1875 4.3125 13.7812 7.5 13.7812C10.6875 13.7812 13.2812 11.1875 13.2812 8C13.2812 4.8125 10.6875 2.21875 7.5 2.21875Z" fill="#428BC1"/>
<path d="M5.62539 14.0938H5.00039C4.74414 14.0938 4.53164 13.8813 4.53164 13.625C4.53164 13.3687 4.73164 13.1625 4.98789 13.1562C4.00664 9.80625 4.00664 6.19375 4.98789 2.84375C4.73164 2.8375 4.53164 2.63125 4.53164 2.375C4.53164 2.11875 4.74414 1.90625 5.00039 1.90625H5.62539C5.77539 1.90625 5.91914 1.98125 6.00664 2.1C6.09414 2.225 6.11914 2.38125 6.06914 2.525C4.89414 6.05625 4.89414 9.94375 6.06914 13.4813C6.11914 13.625 6.09414 13.7812 6.00664 13.9062C5.91914 14.0188 5.77539 14.0938 5.62539 14.0938Z" fill="#428BC1"/>
<path d="M9.37452 14.0938C9.32452 14.0938 9.27452 14.0876 9.22452 14.0688C8.98077 13.9876 8.84327 13.7188 8.93077 13.4751C10.1058 9.9438 10.1058 6.0563 8.93077 2.5188C8.84952 2.27505 8.98077 2.0063 9.22452 1.92505C9.47452 1.8438 9.73702 1.97505 9.81827 2.2188C11.062 5.9438 11.062 10.0438 9.81827 13.7626C9.75577 13.9688 9.56827 14.0938 9.37452 14.0938Z" fill="#428BC1"/>
<path d="M7.5 11.25C5.75625 11.25 4.01875 11.0062 2.34375 10.5125C2.3375 10.7625 2.13125 10.9687 1.875 10.9687C1.61875 10.9687 1.40625 10.7562 1.40625 10.5V9.87499C1.40625 9.725 1.48125 9.58125 1.6 9.49375C1.725 9.40625 1.88125 9.38125 2.025 9.43125C5.55625 10.6062 9.45 10.6062 12.9813 9.43125C13.125 9.38125 13.2812 9.40625 13.4062 9.49375C13.5313 9.58125 13.6 9.725 13.6 9.87499V10.5C13.6 10.7562 13.3875 10.9687 13.1313 10.9687C12.875 10.9687 12.6687 10.7687 12.6625 10.5125C10.9812 11.0062 9.24375 11.25 7.5 11.25Z" fill="#428BC1"/>
<path d="M13.1254 6.59373C13.0754 6.59373 13.0254 6.58748 12.9754 6.56873C9.4441 5.39373 5.55035 5.39373 2.0191 6.56873C1.7691 6.64998 1.5066 6.51873 1.42535 6.27498C1.35035 6.02498 1.4816 5.76248 1.72535 5.68123C5.45035 4.43748 9.55035 4.43748 13.2691 5.68123C13.5129 5.76248 13.6504 6.03123 13.5629 6.27498C13.5066 6.46873 13.3191 6.59373 13.1254 6.59373Z" fill="#428BC1"/>
</svg>
