<svg width="24" height="24" viewBox="0 0 24 24" fill="none" xmlns="http://www.w3.org/2000/svg">
<path d="M23.3669 12.3861L12.8669 0.71947C12.4247 0.227136 11.5754 0.227136 11.1332 0.71947L0.633188 12.3861C0.482054 12.5537 0.382851 12.7615 0.34764 12.9844C0.31243 13.2072 0.342729 13.4355 0.434855 13.6415C0.621522 14.0626 1.03919 14.3333 1.50002 14.3333H3.83335V22.5C3.83335 22.8094 3.95627 23.1061 4.17506 23.3249C4.39386 23.5437 4.6906 23.6666 5.00002 23.6666H8.50002C8.80944 23.6666 9.10619 23.5437 9.32498 23.3249C9.54377 23.1061 9.66669 22.8094 9.66669 22.5V17.8333H14.3334V22.5C14.3334 22.8094 14.4563 23.1061 14.6751 23.3249C14.8939 23.5437 15.1906 23.6666 15.5 23.6666H19C19.3094 23.6666 19.6062 23.5437 19.825 23.3249C20.0438 23.1061 20.1667 22.8094 20.1667 22.5V14.3333H22.5C22.726 14.3343 22.9473 14.2695 23.1371 14.1468C23.3268 14.0241 23.4768 13.8489 23.5687 13.6425C23.6606 13.4361 23.6904 13.2074 23.6546 12.9843C23.6187 12.7612 23.5188 12.5534 23.3669 12.3861Z" fill="#EEEEEE"/>
</svg>
