<svg width="24" height="24" viewBox="0 0 24 24" fill="none" xmlns="http://www.w3.org/2000/svg">
<path fill-rule="evenodd" clip-rule="evenodd" d="M14.0488 2.60878C13.5263 0.463742 10.4737 0.463742 9.95119 2.60878C9.87318 2.9311 9.72016 3.23046 9.5046 3.48248C9.28904 3.7345 9.01702 3.93207 8.71068 4.05911C8.40434 4.18614 8.07234 4.23906 7.74168 4.21355C7.41103 4.18804 7.09107 4.08482 6.80784 3.9123C4.92128 2.76278 2.76246 4.92156 3.912 6.80809C4.65452 8.02636 3.99587 9.61588 2.60983 9.95276C0.46339 10.4739 0.46339 13.5278 2.60983 14.0476C2.93225 14.1257 3.23166 14.2788 3.48369 14.4946C3.73571 14.7103 3.93323 14.9825 4.06014 15.289C4.18706 15.5955 4.2398 15.9276 4.21405 16.2584C4.18831 16.5891 4.08481 16.9091 3.912 17.1923C2.76246 19.0788 4.92128 21.2376 6.80784 20.088C7.09101 19.9152 7.411 19.8117 7.74175 19.786C8.07249 19.7603 8.40464 19.813 8.71114 19.9399C9.01765 20.0668 9.28985 20.2643 9.50557 20.5164C9.7213 20.7684 9.87445 21.0678 9.95256 21.3902C10.4737 23.5366 13.5277 23.5366 14.0474 21.3902C14.1258 21.068 14.2791 20.7687 14.4949 20.5169C14.7107 20.265 14.9828 20.0677 15.2892 19.9408C15.5956 19.8139 15.9277 19.7611 16.2583 19.7867C16.589 19.8123 16.9089 19.9155 17.1922 20.088C19.0787 21.2376 21.2375 19.0788 20.088 17.1923C19.9155 16.909 19.8122 16.5891 19.7867 16.2584C19.7611 15.9278 19.8139 15.5957 19.9407 15.2893C20.0676 14.9829 20.265 14.7108 20.5169 14.495C20.7687 14.2793 21.0679 14.126 21.3902 14.0476C23.5366 13.5264 23.5366 10.4725 21.3902 9.95276C21.0678 9.87466 20.7683 9.72151 20.5163 9.50578C20.2643 9.29006 20.0668 9.01787 19.9399 8.71137C19.8129 8.40487 19.7602 8.07272 19.7859 7.74198C19.8117 7.41125 19.9152 7.09126 20.088 6.80809C21.2375 4.92156 19.0787 2.76278 17.1922 3.9123C16.909 4.08511 16.589 4.1886 16.2583 4.21435C15.9275 4.24009 15.5954 4.18736 15.2889 4.06044C14.9824 3.93352 14.7102 3.73601 14.4944 3.48399C14.2787 3.23197 14.1255 2.93256 14.0474 2.61015L14.0488 2.60878Z" stroke="white" stroke-width="1.5"/>
<path d="M14.4444 12C14.4444 13.35 13.35 14.4444 12 14.4444C10.65 14.4444 9.55556 13.35 9.55556 12C9.55556 10.65 10.65 9.55556 12 9.55556C13.35 9.55556 14.4444 10.65 14.4444 12Z" stroke="white" stroke-width="1.5"/>
</svg>
